<svg width="1024" height="1024" xmlns="http://www.w3.org/2000/svg">

 <g>
  <title>background</title>
  <rect fill="none" id="canvas_background" height="402" width="582" y="-1" x="-1"/>
 </g>
 <g>
  <title>Layer 1</title>
  <path fill="#f6c90e" id="XMLID_285_" d="m908.5,194l-11.2,10.6l-11.5,10.9l-375.3,357.3l-372.6,-357.2l-11.4,-10.9l-11.1,-10.6c10.6,-7.3 23.3,-11.6 37.1,-11.6l719,0c13.7,0 26.5,4.2 37,11.5z"/>
  <path fill="#f6c90e" id="XMLID_281_" d="m937,248l0,528c0,36.1 -29.4,65.5 -65.5,65.5l-719,0c-36.1,0 -65.5,-29.4 -65.5,-65.5l0,-528c0,-7.7 1.3,-15.2 3.8,-22.1l12.2,11.7l14,13.4l393.5,377.1l396.5,-377.4l13.9,-13.2l12.2,-11.6c2.5,6.8 3.9,14.3 3.9,22.1z"/>
 </g>
</svg>